<mxfile host="app.diagrams.net" modified="2023-05-05T07:24:13.626Z" agent="Mozilla/5.0 (Windows NT 10.0; Win64; x64) AppleWebKit/537.36 (KHTML, like Gecko) Chrome/112.0.0.0 Safari/537.36" etag="kxiaAAhCQ20W8k6jPmhE" version="21.2.9" type="github">
  <diagram name="第 1 页" id="Xdbee2wRyb1NmvmhTID7">
    <mxGraphModel dx="977" dy="548" grid="1" gridSize="10" guides="1" tooltips="1" connect="1" arrows="1" fold="1" page="1" pageScale="1" pageWidth="827" pageHeight="1169" math="0" shadow="0">
      <root>
        <mxCell id="0" />
        <mxCell id="1" parent="0" />
        <mxCell id="0dHfFGIhuTSBzhIeAAsF-39" value="" style="whiteSpace=wrap;html=1;aspect=fixed;fillColor=#1ba1e2;strokeColor=#006EAF;fontColor=#ffffff;" vertex="1" parent="1">
          <mxGeometry x="651" y="460" width="20" height="20" as="geometry" />
        </mxCell>
        <mxCell id="0dHfFGIhuTSBzhIeAAsF-36" value="" style="whiteSpace=wrap;html=1;aspect=fixed;fillColor=#1ba1e2;strokeColor=#006EAF;fontColor=#ffffff;" vertex="1" parent="1">
          <mxGeometry x="591" y="460" width="20" height="20" as="geometry" />
        </mxCell>
        <mxCell id="0dHfFGIhuTSBzhIeAAsF-37" value="" style="whiteSpace=wrap;html=1;aspect=fixed;fillColor=#1ba1e2;strokeColor=#006EAF;fontColor=#ffffff;" vertex="1" parent="1">
          <mxGeometry x="611" y="460" width="20" height="20" as="geometry" />
        </mxCell>
        <mxCell id="0dHfFGIhuTSBzhIeAAsF-38" value="" style="whiteSpace=wrap;html=1;aspect=fixed;fillColor=#1ba1e2;strokeColor=#006EAF;fontColor=#ffffff;" vertex="1" parent="1">
          <mxGeometry x="631" y="460" width="20" height="20" as="geometry" />
        </mxCell>
        <mxCell id="0dHfFGIhuTSBzhIeAAsF-40" value="" style="whiteSpace=wrap;html=1;aspect=fixed;fillColor=#1ba1e2;strokeColor=#006EAF;fontColor=#ffffff;" vertex="1" parent="1">
          <mxGeometry x="591" y="480" width="20" height="20" as="geometry" />
        </mxCell>
        <mxCell id="0dHfFGIhuTSBzhIeAAsF-41" value="" style="whiteSpace=wrap;html=1;aspect=fixed;fillColor=#1ba1e2;strokeColor=#006EAF;fontColor=#ffffff;" vertex="1" parent="1">
          <mxGeometry x="611" y="480" width="20" height="20" as="geometry" />
        </mxCell>
        <mxCell id="0dHfFGIhuTSBzhIeAAsF-42" value="" style="whiteSpace=wrap;html=1;aspect=fixed;fillColor=#1ba1e2;strokeColor=#006EAF;fontColor=#ffffff;" vertex="1" parent="1">
          <mxGeometry x="631" y="480" width="20" height="20" as="geometry" />
        </mxCell>
        <mxCell id="0dHfFGIhuTSBzhIeAAsF-43" value="" style="whiteSpace=wrap;html=1;aspect=fixed;fillColor=#1ba1e2;strokeColor=#006EAF;fontColor=#ffffff;" vertex="1" parent="1">
          <mxGeometry x="651" y="480" width="20" height="20" as="geometry" />
        </mxCell>
        <mxCell id="0dHfFGIhuTSBzhIeAAsF-44" value="" style="whiteSpace=wrap;html=1;aspect=fixed;fillColor=#1ba1e2;strokeColor=#006EAF;fontColor=#ffffff;" vertex="1" parent="1">
          <mxGeometry x="591" y="500" width="20" height="20" as="geometry" />
        </mxCell>
        <mxCell id="0dHfFGIhuTSBzhIeAAsF-45" value="" style="whiteSpace=wrap;html=1;aspect=fixed;fillColor=#1ba1e2;strokeColor=#006EAF;fontColor=#ffffff;" vertex="1" parent="1">
          <mxGeometry x="611" y="500" width="20" height="20" as="geometry" />
        </mxCell>
        <mxCell id="0dHfFGIhuTSBzhIeAAsF-46" value="" style="whiteSpace=wrap;html=1;aspect=fixed;fillColor=#1ba1e2;strokeColor=#006EAF;fontColor=#ffffff;" vertex="1" parent="1">
          <mxGeometry x="631" y="500" width="20" height="20" as="geometry" />
        </mxCell>
        <mxCell id="0dHfFGIhuTSBzhIeAAsF-47" value="" style="whiteSpace=wrap;html=1;aspect=fixed;fillColor=#1ba1e2;strokeColor=#006EAF;fontColor=#ffffff;" vertex="1" parent="1">
          <mxGeometry x="651" y="500" width="20" height="20" as="geometry" />
        </mxCell>
        <mxCell id="0dHfFGIhuTSBzhIeAAsF-48" value="" style="whiteSpace=wrap;html=1;aspect=fixed;fillColor=#1ba1e2;strokeColor=#006EAF;fontColor=#ffffff;" vertex="1" parent="1">
          <mxGeometry x="591" y="520" width="20" height="20" as="geometry" />
        </mxCell>
        <mxCell id="0dHfFGIhuTSBzhIeAAsF-49" value="" style="whiteSpace=wrap;html=1;aspect=fixed;fillColor=#1ba1e2;strokeColor=#006EAF;fontColor=#ffffff;" vertex="1" parent="1">
          <mxGeometry x="611" y="520" width="20" height="20" as="geometry" />
        </mxCell>
        <mxCell id="0dHfFGIhuTSBzhIeAAsF-50" value="" style="whiteSpace=wrap;html=1;aspect=fixed;fillColor=#1ba1e2;strokeColor=#006EAF;fontColor=#ffffff;" vertex="1" parent="1">
          <mxGeometry x="631" y="520" width="20" height="20" as="geometry" />
        </mxCell>
        <mxCell id="0dHfFGIhuTSBzhIeAAsF-51" value="" style="whiteSpace=wrap;html=1;aspect=fixed;fillColor=#1ba1e2;strokeColor=#006EAF;fontColor=#ffffff;" vertex="1" parent="1">
          <mxGeometry x="651" y="520" width="20" height="20" as="geometry" />
        </mxCell>
        <mxCell id="0dHfFGIhuTSBzhIeAAsF-6" value="" style="whiteSpace=wrap;html=1;aspect=fixed;dashed=1;fillColor=#fad7ac;strokeColor=#b46504;" vertex="1" parent="1">
          <mxGeometry x="90" y="300" width="80" height="80" as="geometry" />
        </mxCell>
        <mxCell id="0dHfFGIhuTSBzhIeAAsF-7" value="" style="whiteSpace=wrap;html=1;aspect=fixed;dashed=1;fillColor=#fad7ac;strokeColor=#b46504;" vertex="1" parent="1">
          <mxGeometry x="170" y="300" width="80" height="80" as="geometry" />
        </mxCell>
        <mxCell id="0dHfFGIhuTSBzhIeAAsF-8" value="" style="whiteSpace=wrap;html=1;aspect=fixed;dashed=1;fillColor=#fad7ac;strokeColor=#b46504;" vertex="1" parent="1">
          <mxGeometry x="250" y="300" width="80" height="80" as="geometry" />
        </mxCell>
        <mxCell id="0dHfFGIhuTSBzhIeAAsF-9" value="" style="whiteSpace=wrap;html=1;aspect=fixed;dashed=1;fillColor=#fad7ac;strokeColor=#b46504;" vertex="1" parent="1">
          <mxGeometry x="90" y="380" width="80" height="80" as="geometry" />
        </mxCell>
        <mxCell id="0dHfFGIhuTSBzhIeAAsF-10" value="" style="whiteSpace=wrap;html=1;aspect=fixed;dashed=1;fillColor=#fad7ac;strokeColor=#b46504;" vertex="1" parent="1">
          <mxGeometry x="170" y="380" width="80" height="80" as="geometry" />
        </mxCell>
        <mxCell id="0dHfFGIhuTSBzhIeAAsF-11" value="" style="whiteSpace=wrap;html=1;aspect=fixed;dashed=1;fillColor=#fad7ac;strokeColor=#b46504;" vertex="1" parent="1">
          <mxGeometry x="250" y="380" width="80" height="80" as="geometry" />
        </mxCell>
        <mxCell id="0dHfFGIhuTSBzhIeAAsF-12" value="" style="whiteSpace=wrap;html=1;aspect=fixed;dashed=1;fillColor=#fad7ac;strokeColor=#b46504;" vertex="1" parent="1">
          <mxGeometry x="90" y="460" width="80" height="80" as="geometry" />
        </mxCell>
        <mxCell id="0dHfFGIhuTSBzhIeAAsF-13" value="" style="whiteSpace=wrap;html=1;aspect=fixed;dashed=1;fillColor=#fad7ac;strokeColor=#b46504;" vertex="1" parent="1">
          <mxGeometry x="170" y="460" width="80" height="80" as="geometry" />
        </mxCell>
        <mxCell id="0dHfFGIhuTSBzhIeAAsF-14" value="" style="whiteSpace=wrap;html=1;aspect=fixed;dashed=1;fillColor=#fad7ac;strokeColor=#b46504;" vertex="1" parent="1">
          <mxGeometry x="250" y="460" width="80" height="80" as="geometry" />
        </mxCell>
        <mxCell id="0dHfFGIhuTSBzhIeAAsF-15" value="" style="shape=curlyBracket;whiteSpace=wrap;html=1;rounded=1;flipH=1;labelPosition=right;verticalLabelPosition=middle;align=left;verticalAlign=middle;rotation=-90;" vertex="1" parent="1">
          <mxGeometry x="200" y="150" width="20" height="230" as="geometry" />
        </mxCell>
        <mxCell id="0dHfFGIhuTSBzhIeAAsF-16" value="AS" style="text;html=1;align=center;verticalAlign=middle;resizable=0;points=[];autosize=1;strokeColor=none;fillColor=none;" vertex="1" parent="1">
          <mxGeometry x="190" y="220" width="40" height="30" as="geometry" />
        </mxCell>
        <mxCell id="0dHfFGIhuTSBzhIeAAsF-17" value="" style="shape=flexArrow;endArrow=classic;html=1;rounded=0;fillColor=#b0e3e6;strokeColor=#0e8088;" edge="1" parent="1">
          <mxGeometry width="50" height="50" relative="1" as="geometry">
            <mxPoint x="344" y="419.58" as="sourcePoint" />
            <mxPoint x="414" y="419.58" as="targetPoint" />
          </mxGeometry>
        </mxCell>
        <mxCell id="0dHfFGIhuTSBzhIeAAsF-18" value="" style="whiteSpace=wrap;html=1;aspect=fixed;dashed=1;fillColor=#b0e3e6;strokeColor=#0e8088;" vertex="1" parent="1">
          <mxGeometry x="430" y="300" width="80" height="80" as="geometry" />
        </mxCell>
        <mxCell id="0dHfFGIhuTSBzhIeAAsF-19" value="" style="whiteSpace=wrap;html=1;aspect=fixed;dashed=1;fillColor=#b0e3e6;strokeColor=#0e8088;" vertex="1" parent="1">
          <mxGeometry x="510" y="300" width="80" height="80" as="geometry" />
        </mxCell>
        <mxCell id="0dHfFGIhuTSBzhIeAAsF-20" value="" style="whiteSpace=wrap;html=1;aspect=fixed;dashed=1;fillColor=#b0e3e6;strokeColor=#0e8088;" vertex="1" parent="1">
          <mxGeometry x="590" y="300" width="80" height="80" as="geometry" />
        </mxCell>
        <mxCell id="0dHfFGIhuTSBzhIeAAsF-21" value="" style="whiteSpace=wrap;html=1;aspect=fixed;dashed=1;fillColor=#b0e3e6;strokeColor=#0e8088;" vertex="1" parent="1">
          <mxGeometry x="430" y="380" width="80" height="80" as="geometry" />
        </mxCell>
        <mxCell id="0dHfFGIhuTSBzhIeAAsF-22" value="" style="whiteSpace=wrap;html=1;aspect=fixed;dashed=1;fillColor=#b0e3e6;strokeColor=#0e8088;" vertex="1" parent="1">
          <mxGeometry x="510" y="380" width="80" height="80" as="geometry" />
        </mxCell>
        <mxCell id="0dHfFGIhuTSBzhIeAAsF-23" value="" style="whiteSpace=wrap;html=1;aspect=fixed;dashed=1;fillColor=#b0e3e6;strokeColor=#0e8088;" vertex="1" parent="1">
          <mxGeometry x="590" y="380" width="80" height="80" as="geometry" />
        </mxCell>
        <mxCell id="0dHfFGIhuTSBzhIeAAsF-24" value="" style="whiteSpace=wrap;html=1;aspect=fixed;dashed=1;fillColor=#b0e3e6;strokeColor=#0e8088;" vertex="1" parent="1">
          <mxGeometry x="430" y="460" width="80" height="80" as="geometry" />
        </mxCell>
        <mxCell id="0dHfFGIhuTSBzhIeAAsF-25" value="" style="whiteSpace=wrap;html=1;aspect=fixed;dashed=1;fillColor=#b0e3e6;strokeColor=#0e8088;" vertex="1" parent="1">
          <mxGeometry x="510" y="460" width="80" height="80" as="geometry" />
        </mxCell>
        <mxCell id="0dHfFGIhuTSBzhIeAAsF-27" value="MS" style="text;html=1;align=center;verticalAlign=middle;resizable=0;points=[];autosize=1;strokeColor=none;fillColor=none;" vertex="1" parent="1">
          <mxGeometry x="450" y="325" width="40" height="30" as="geometry" />
        </mxCell>
        <mxCell id="0dHfFGIhuTSBzhIeAAsF-28" value="MS" style="text;html=1;align=center;verticalAlign=middle;resizable=0;points=[];autosize=1;strokeColor=none;fillColor=none;" vertex="1" parent="1">
          <mxGeometry x="530" y="325" width="40" height="30" as="geometry" />
        </mxCell>
        <mxCell id="0dHfFGIhuTSBzhIeAAsF-29" value="MS" style="text;html=1;align=center;verticalAlign=middle;resizable=0;points=[];autosize=1;strokeColor=none;fillColor=none;" vertex="1" parent="1">
          <mxGeometry x="610" y="325" width="40" height="30" as="geometry" />
        </mxCell>
        <mxCell id="0dHfFGIhuTSBzhIeAAsF-30" value="MS" style="text;html=1;align=center;verticalAlign=middle;resizable=0;points=[];autosize=1;strokeColor=none;fillColor=none;" vertex="1" parent="1">
          <mxGeometry x="450" y="405" width="40" height="30" as="geometry" />
        </mxCell>
        <mxCell id="0dHfFGIhuTSBzhIeAAsF-31" value="MS" style="text;html=1;align=center;verticalAlign=middle;resizable=0;points=[];autosize=1;strokeColor=none;fillColor=none;" vertex="1" parent="1">
          <mxGeometry x="530" y="405" width="40" height="30" as="geometry" />
        </mxCell>
        <mxCell id="0dHfFGIhuTSBzhIeAAsF-32" value="MS" style="text;html=1;align=center;verticalAlign=middle;resizable=0;points=[];autosize=1;strokeColor=none;fillColor=none;" vertex="1" parent="1">
          <mxGeometry x="610" y="405" width="40" height="30" as="geometry" />
        </mxCell>
        <mxCell id="0dHfFGIhuTSBzhIeAAsF-33" value="MS" style="text;html=1;align=center;verticalAlign=middle;resizable=0;points=[];autosize=1;strokeColor=none;fillColor=none;" vertex="1" parent="1">
          <mxGeometry x="450" y="480" width="40" height="30" as="geometry" />
        </mxCell>
        <mxCell id="0dHfFGIhuTSBzhIeAAsF-34" value="MS" style="text;html=1;align=center;verticalAlign=middle;resizable=0;points=[];autosize=1;strokeColor=none;fillColor=none;" vertex="1" parent="1">
          <mxGeometry x="530" y="480" width="40" height="30" as="geometry" />
        </mxCell>
        <mxCell id="0dHfFGIhuTSBzhIeAAsF-35" value="MS" style="text;html=1;align=center;verticalAlign=middle;resizable=0;points=[];autosize=1;strokeColor=none;fillColor=none;" vertex="1" parent="1">
          <mxGeometry x="610" y="485" width="40" height="30" as="geometry" />
        </mxCell>
        <mxCell id="0dHfFGIhuTSBzhIeAAsF-53" value="Dispatch" style="text;html=1;align=center;verticalAlign=middle;resizable=0;points=[];autosize=1;strokeColor=none;fillColor=none;" vertex="1" parent="1">
          <mxGeometry x="340" y="380" width="70" height="30" as="geometry" />
        </mxCell>
      </root>
    </mxGraphModel>
  </diagram>
</mxfile>
